<svg class="btc-icon" width="64" height="64" viewBox="0 0 64 64" version="1.1" xmlns="http://www.w3.org/2000/svg" xmlns:xlink="http://www.w3.org/1999/xlink"><g stroke="none" stroke-width="1" fill="none" fill-rule="evenodd"><g fill-rule="nonzero"><path d="M63.03256,39.74529 C58.75856,56.88829 41.39556,67.32129 24.25056,63.04629 C7.11256,58.77229 -3.32044,41.40829 0.95556,24.26629 C5.22756,7.12129 22.59056,-3.31271 39.73056,0.96129 C56.87456,5.23529 67.30656,22.60129 63.03256,39.74529 Z" fill="#f7931a"/><path d="M46.10256,27.44529 C46.73956,23.18729 43.49756,20.89829 39.06456,19.37129 L40.50256,13.60329 L36.99156,12.72829 L35.59156,18.34429 C34.66856,18.11429 33.72056,17.89729 32.77856,17.68229 L34.18856,12.02929 L30.67956,11.15429 L29.24056,16.92029 C28.47656,16.74629 27.72656,16.57429 26.99856,16.39329 L27.00256,16.37529 L22.16056,15.16629 L21.22656,18.91629 C21.22656,18.91629 23.83156,19.51329 23.77656,19.55029 C25.19856,19.90529 25.45556,20.84629 25.41256,21.59229 L23.77456,28.16329 C23.87256,28.18829 23.99956,28.22429 24.13956,28.28029 C24.02256,28.25129 23.89756,28.21929 23.76856,28.18829 L21.47256,37.39329 C21.29856,37.82529 20.85756,38.47329 19.86356,38.22729 C19.89856,38.27829 17.31156,37.59029 17.31156,37.59029 L15.56856,41.60929 L20.13756,42.74829 C20.98756,42.96129 21.82056,43.18429 22.64056,43.39429 L21.18756,49.22829 L24.69456,50.10329 L26.13356,44.33129 C27.09156,44.59129 28.02156,44.83129 28.93156,45.05729 L27.49756,50.80229 L31.00856,51.67729 L32.46156,45.85429 C38.44856,46.98729 42.95056,46.53029 44.84556,41.11529 C46.37256,36.75529 44.76956,34.24029 41.61956,32.60029 C43.91356,32.07129 45.64156,30.56229 46.10256,27.44529 Z M38.08056,38.69429 C36.99556,43.05429 29.65456,40.69729 27.27456,40.10629 L29.20256,32.37729 C31.58256,32.97129 39.21456,34.14729 38.08056,38.69429 Z M39.16656,27.38229 C38.17656,31.34829 32.06656,29.33329 30.08456,28.83929 L31.83256,21.82929 C33.81456,22.32329 40.19756,23.24529 39.16656,27.38229 Z" fill="#fff"/></g></g></svg>