<svg version="1.1" xmlns="http://www.w3.org/2000/svg" xmlns:xlink="http://www.w3.org/1999/xlink" x="0" y="0" viewBox="0 0 48 48" xml:space="preserve" enable-background="new 0 0 48 48"><path d="M12.9,30.3c0-2.9,1.6-5.3,3.5-5.3 c1.9,0,3.5,2.4,3.5,5.3c0,2.9-1.6,5.3-3.5,5.3C14.5,35.6,12.9,33.2,12.9,30.3z M48,24.1c0,6.6-1.4,14-11.3,17.2l-1-2.5 c4.4-1.3,6.2-4,6.2-9c0-3.7-2.8-8-8.6-8c-4.6,0-5,0.3-9.2,0.3c-0.1,0-0.3,0-0.4,0c-4.1,0-4.6-0.3-9.2-0.3c-5.7,0-8.6,4.3-8.6,8 C6.1,38,10.9,40,23.8,40c0.1,0,0.3,0,0.4,0c1.3,0,2.5,0,3.6-0.1l-1.2,3C25.9,43,25,43,24.2,43c-0.1,0-0.3,0-0.3,0 C2.4,43,0,32.9,0,24.1C0,17.6,3.8,14,3.8,14S2,8.9,4.3,4c5.1-0.1,10.3,4,10.3,4s3.4-1,9.3-1c0,0,0.2,0,0.2,0c5.9,0,9.3,1,9.3,1 s5.2-4.1,10.3-4c2.4,4.9,0.5,10,0.5,10S48,17.6,48,24.1z M31.6,25c1.9,0,3.5,2.4,3.5,5.3c0,2.9-1.6,5.3-3.5,5.3 c-1.9,0-3.5-2.4-3.5-5.3C28,27.4,29.6,25,31.6,25z M29.2,43l0.1-0.1c0,0,0,0,0-0.1l1.8-4.6c0.1-0.4,0.5-0.6,0.9-0.6 c0.4,0,0.8,0.2,0.9,0.6h0l0,0c0,0,0,0,0,0l1.9,4.8h0c0.1,0.3,0.2,0.6,0.2,1c0,1.7-1.3,3-3,3c-1.7,0-3-1.3-3-3 C29,43.6,29.1,43.3,29.2,43L29.2,43z"/></svg>