<svg version="1.1" xmlns="http://www.w3.org/2000/svg" xmlns:xlink="http://www.w3.org/1999/xlink" x="0px" y="0px"
	 viewBox="0 0 14 14" style="enable-background:new 0 0 14 14;" xml:space="preserve">
<g id="Twitter">
	<path id="icon_1_" style="fill-rule:evenodd;clip-rule:evenodd;fill:#FFFFFF;" d="M14,2.3c0,0-0.9,0.4-1.5,0.4
		c0.9-0.6,1.2-1.5,1.2-1.5S13,1.7,11.9,1.9C11.4,1.4,10.8,1,9.9,1C8.2,1,7.1,2.4,7.1,3.8c0,0.3,0.1,0.6,0.1,0.6
		C3.6,4.3,1.5,1.5,1.5,1.5c0,0-1.2,2,0.8,3.7C1.5,5.1,1.1,4.9,1.1,4.9S1,7,3.3,7.6C2.9,7.8,2.1,7.7,2.1,7.7s0.5,1.8,2.6,1.9
		c-1.8,1.5-4.1,1.2-4.1,1.2S2.3,12,4.8,12c4.6,0,7.9-3.6,7.9-7.9l0-0.4C13.7,3,14,2.3,14,2.3z"/>
</g>
</svg>