<svg viewBox="0 0 40 40" version="1.1" xmlns="http://www.w3.org/2000/svg" xmlns:xlink="http://www.w3.org/1999/xlink"><g stroke="none" stroke-width="1" fill="none" fill-rule="evenodd"><g fill="#111"><path d="M19.9981583,0 C8.95546211,0 0,8.95423432 0,20.0006139 C0,28.8369809 5.73007152,36.3326069 13.6775223,38.9772553 C14.6781669,39.161423 15.042819,38.5438473 15.042819,38.0134442 C15.042819,37.5395193 15.02563,36.2810399 15.0158077,34.6124804 C9.45271494,35.8206206 8.2789527,31.9309985 8.2789527,31.9309985 C7.36916419,29.6203076 6.05789005,29.0051874 6.05789005,29.0051874 C4.24199638,27.7651248 6.19540195,27.7896805 6.19540195,27.7896805 C8.20283004,27.9308757 9.25872495,29.8511311 9.25872495,29.8511311 C11.0426962,32.9070874 13.9402683,32.0243101 15.0796525,31.5123239 C15.2613647,30.2206943 15.7782621,29.3391448 16.349182,28.8394364 C11.9082845,28.3348169 7.239019,26.6183738 7.239019,18.9545413 C7.239019,16.7715399 8.01866233,14.9851131 9.29801406,13.587894 C9.09174622,13.0820467 8.40541453,11.0476074 9.49445962,8.2949139 C9.49445962,8.2949139 11.1728414,7.75714417 14.9937076,10.3453145 C16.5886,9.90085638 18.300132,9.67985512 20.0006139,9.67126063 C21.699868,9.67985512 23.4101722,9.90085638 25.0075202,10.3453145 C28.8259308,7.75714417 30.501857,8.2949139 30.501857,8.2949139 C31.5933577,11.0476074 30.907026,13.0820467 30.7019859,13.587894 C31.9837932,14.9851131 32.7572976,16.7715399 32.7572976,18.9545413 C32.7572976,26.6380184 28.0806655,28.328678 23.6262623,28.8234752 C24.3432886,29.441051 24.9829645,30.661469 24.9829645,32.5277019 C24.9829645,35.2005893 24.9584088,37.3578072 24.9584088,38.0134442 C24.9584088,38.5487584 25.3193775,39.1712453 26.3335277,38.9760275 C34.2748396,36.3252402 40,28.8345253 40,20.0006139 C40,8.95423432 31.0445379,0 19.9981583,0"/></g></g></svg>