<svg width="14" height="14" viewBox="0 0 14 14" version="1.1" xmlns="http://www.w3.org/2000/svg" xmlns:xlink="http://www.w3.org/1999/xlink"><g stroke="none" stroke-width="1" fill="none" fill-rule="evenodd"><g fill="#fff" fill-rule="nonzero"><path d="M14,3.3 C14,3.3 13.1,3.7 12.5,3.7 C13.4,3.1 13.7,2.2 13.7,2.2 C13.7,2.2 13,2.7 11.9,2.9 C11.4,2.4 10.8,2 9.9,2 C8.2,2 7.1,3.4 7.1,4.8 C7.1,5.1 7.2,5.4 7.2,5.4 C3.6,5.3 1.5,2.5 1.5,2.5 C1.5,2.5 0.3,4.5 2.3,6.2 C1.5,6.1 1.1,5.9 1.1,5.9 C1.1,5.9 1,8 3.3,8.6 C2.9,8.8 2.1,8.7 2.1,8.7 C2.1,8.7 2.6,10.5 4.7,10.6 C2.9,12.1 0.6,11.8 0.6,11.8 C0.6,11.8 2.3,13 4.8,13 C9.4,13 12.7,9.4 12.7,5.1 L12.7,4.7 C13.7,4 14,3.3 14,3.3 Z"/></g></g></svg>